<svg xmlns="http://www.w3.org/2000/svg" width="1024" height="1024" viewBox="0 0 1024 1024" role="img" aria-label="Ensemblr">
  <title>Ensemblr</title>
  <defs>
    <clipPath id="squircle"><polygon points="924,512 923.99,573.83 923.97,593.59 923.94,607.95 923.9,619.65 923.84,629.7 923.77,638.6 923.69,646.64 923.6,654.01 923.49,660.85 923.37,667.24 923.24,673.26 923.1,678.95 922.94,684.36 922.77,689.52 922.59,694.46 922.39,699.21 922.18,703.77 921.96,708.17 921.73,712.42 921.48,716.53 921.23,720.52 920.96,724.39 920.67,728.15 920.37,731.81 920.07,735.37 919.74,738.85 919.41,742.23 919.06,745.54 918.7,748.78 918.33,751.94 917.94,755.03 917.54,758.06 917.13,761.02 916.7,763.93 916.26,766.77 915.81,769.57 915.35,772.31 914.87,775 914.38,777.64 913.88,780.24 913.36,782.79 912.83,785.29 912.28,787.76 911.73,790.18 911.16,792.56 910.57,794.91 909.98,797.22 909.36,799.49 908.74,801.73 908.1,803.93 907.45,806.1 906.79,808.23 906.11,810.34 905.41,812.41 904.71,814.45 903.99,816.47 903.25,818.45 902.5,820.41 901.74,822.34 900.96,824.24 900.17,826.11 899.37,827.96 898.55,829.78 897.71,831.58 896.87,833.35 896,835.1 895.12,836.83 894.23,838.53 893.32,840.21 892.4,841.86 891.46,843.5 890.51,845.11 889.54,846.7 888.56,848.27 887.56,849.81 886.55,851.34 885.52,852.85 884.48,854.33 883.42,855.8 882.34,857.24 881.25,858.67 880.14,860.08 879.01,861.46 877.87,862.83 876.71,864.18 875.54,865.52 874.34,866.83 873.14,868.13 871.91,869.41 870.67,870.67 869.41,871.91 868.13,873.14 866.83,874.34 865.52,875.54 864.18,876.71 862.83,877.87 861.46,879.01 860.08,880.14 858.67,881.25 857.24,882.34 855.8,883.42 854.33,884.48 852.85,885.52 851.34,886.55 849.81,887.56 848.27,888.56 846.7,889.54 845.11,890.51 843.5,891.46 841.86,892.4 840.21,893.32 838.53,894.23 836.83,895.12 835.1,896 833.35,896.87 831.58,897.71 829.78,898.55 827.96,899.37 826.11,900.17 824.24,900.96 822.34,901.74 820.41,902.5 818.45,903.25 816.47,903.99 814.45,904.71 812.41,905.41 810.34,906.11 808.23,906.79 806.1,907.45 803.93,908.1 801.73,908.74 799.49,909.36 797.22,909.98 794.91,910.57 792.56,911.16 790.18,911.73 787.76,912.28 785.29,912.83 782.79,913.36 780.24,913.88 777.64,914.38 775,914.87 772.31,915.35 769.57,915.81 766.77,916.26 763.93,916.7 761.02,917.13 758.06,917.54 755.03,917.94 751.94,918.33 748.78,918.7 745.54,919.06 742.23,919.41 738.85,919.74 735.37,920.07 731.81,920.37 728.15,920.67 724.39,920.96 720.52,921.23 716.53,921.48 712.42,921.73 708.17,921.96 703.77,922.18 699.21,922.39 694.46,922.59 689.52,922.77 684.36,922.94 678.95,923.1 673.26,923.24 667.24,923.37 660.85,923.49 654.01,923.6 646.64,923.69 638.6,923.77 629.7,923.84 619.65,923.9 607.95,923.94 593.59,923.97 573.83,923.99 512,924 450.17,923.99 430.41,923.97 416.05,923.94 404.35,923.9 394.3,923.84 385.4,923.77 377.36,923.69 369.99,923.6 363.15,923.49 356.76,923.37 350.74,923.24 345.05,923.1 339.64,922.94 334.48,922.77 329.54,922.59 324.79,922.39 320.23,922.18 315.83,921.96 311.58,921.73 307.47,921.48 303.48,921.23 299.61,920.96 295.85,920.67 292.19,920.37 288.63,920.07 285.15,919.74 281.77,919.41 278.46,919.06 275.22,918.7 272.06,918.33 268.97,917.94 265.94,917.54 262.98,917.13 260.07,916.7 257.23,916.26 254.43,915.81 251.69,915.35 249,914.87 246.36,914.38 243.76,913.88 241.21,913.36 238.71,912.83 236.24,912.28 233.82,911.73 231.44,911.16 229.09,910.57 226.78,909.98 224.51,909.36 222.27,908.74 220.07,908.1 217.9,907.45 215.77,906.79 213.66,906.11 211.59,905.41 209.55,904.71 207.53,903.99 205.55,903.25 203.59,902.5 201.66,901.74 199.76,900.96 197.89,900.17 196.04,899.37 194.22,898.55 192.42,897.71 190.65,896.87 188.9,896 187.17,895.12 185.47,894.23 183.79,893.32 182.14,892.4 180.5,891.46 178.89,890.51 177.3,889.54 175.73,888.56 174.19,887.56 172.66,886.55 171.15,885.52 169.67,884.48 168.2,883.42 166.76,882.34 165.33,881.25 163.92,880.14 162.54,879.01 161.17,877.87 159.82,876.71 158.48,875.54 157.17,874.34 155.87,873.14 154.59,871.91 153.33,870.67 152.09,869.41 150.86,868.13 149.66,866.83 148.46,865.52 147.29,864.18 146.13,862.83 144.99,861.46 143.86,860.08 142.75,858.67 141.66,857.24 140.58,855.8 139.52,854.33 138.48,852.85 137.45,851.34 136.44,849.81 135.44,848.27 134.46,846.7 133.49,845.11 132.54,843.5 131.6,841.86 130.68,840.21 129.77,838.53 128.88,836.83 128,835.1 127.13,833.35 126.29,831.58 125.45,829.78 124.63,827.96 123.83,826.11 123.04,824.24 122.26,822.34 121.5,820.41 120.75,818.45 120.01,816.47 119.29,814.45 118.59,812.41 117.89,810.34 117.21,808.23 116.55,806.1 115.9,803.93 115.26,801.73 114.64,799.49 114.02,797.22 113.43,794.91 112.84,792.56 112.27,790.18 111.72,787.76 111.17,785.29 110.64,782.79 110.12,780.24 109.62,777.64 109.13,775 108.65,772.31 108.19,769.57 107.74,766.77 107.3,763.93 106.87,761.02 106.46,758.06 106.06,755.03 105.67,751.94 105.3,748.78 104.94,745.54 104.59,742.23 104.26,738.85 103.93,735.37 103.63,731.81 103.33,728.15 103.04,724.39 102.77,720.52 102.52,716.53 102.27,712.42 102.04,708.17 101.82,703.77 101.61,699.21 101.41,694.46 101.23,689.52 101.06,684.36 100.9,678.95 100.76,673.26 100.63,667.24 100.51,660.85 100.4,654.01 100.31,646.64 100.23,638.6 100.16,629.7 100.1,619.65 100.06,607.95 100.03,593.59 100.01,573.83 100,512 100.01,450.17 100.03,430.41 100.06,416.05 100.1,404.35 100.16,394.3 100.23,385.4 100.31,377.36 100.4,369.99 100.51,363.15 100.63,356.76 100.76,350.74 100.9,345.05 101.06,339.64 101.23,334.48 101.41,329.54 101.61,324.79 101.82,320.23 102.04,315.83 102.27,311.58 102.52,307.47 102.77,303.48 103.04,299.61 103.33,295.85 103.63,292.19 103.93,288.63 104.26,285.15 104.59,281.77 104.94,278.46 105.3,275.22 105.67,272.06 106.06,268.97 106.46,265.94 106.87,262.98 107.3,260.07 107.74,257.23 108.19,254.43 108.65,251.69 109.13,249 109.62,246.36 110.12,243.76 110.64,241.21 111.17,238.71 111.72,236.24 112.27,233.82 112.84,231.44 113.43,229.09 114.02,226.78 114.64,224.51 115.26,222.27 115.9,220.07 116.55,217.9 117.21,215.77 117.89,213.66 118.59,211.59 119.29,209.55 120.01,207.53 120.75,205.55 121.5,203.59 122.26,201.66 123.04,199.76 123.83,197.89 124.63,196.04 125.45,194.22 126.29,192.42 127.13,190.65 128,188.9 128.88,187.17 129.77,185.47 130.68,183.79 131.6,182.14 132.54,180.5 133.49,178.89 134.46,177.3 135.44,175.73 136.44,174.19 137.45,172.66 138.48,171.15 139.52,169.67 140.58,168.2 141.66,166.76 142.75,165.33 143.86,163.92 144.99,162.54 146.13,161.17 147.29,159.82 148.46,158.48 149.66,157.17 150.86,155.87 152.09,154.59 153.33,153.33 154.59,152.09 155.87,150.86 157.17,149.66 158.48,148.46 159.82,147.29 161.17,146.13 162.54,144.99 163.92,143.86 165.33,142.75 166.76,141.66 168.2,140.58 169.67,139.52 171.15,138.48 172.66,137.45 174.19,136.44 175.73,135.44 177.3,134.46 178.89,133.49 180.5,132.54 182.14,131.6 183.79,130.68 185.47,129.77 187.17,128.88 188.9,128 190.65,127.13 192.42,126.29 194.22,125.45 196.04,124.63 197.89,123.83 199.76,123.04 201.66,122.26 203.59,121.5 205.55,120.75 207.53,120.01 209.55,119.29 211.59,118.59 213.66,117.89 215.77,117.21 217.9,116.55 220.07,115.9 222.27,115.26 224.51,114.64 226.78,114.02 229.09,113.43 231.44,112.84 233.82,112.27 236.24,111.72 238.71,111.17 241.21,110.64 243.76,110.12 246.36,109.62 249,109.13 251.69,108.65 254.43,108.19 257.23,107.74 260.07,107.3 262.98,106.87 265.94,106.46 268.97,106.06 272.06,105.67 275.22,105.3 278.46,104.94 281.77,104.59 285.15,104.26 288.63,103.93 292.19,103.63 295.85,103.33 299.61,103.04 303.48,102.77 307.47,102.52 311.58,102.27 315.83,102.04 320.23,101.82 324.79,101.61 329.54,101.41 334.48,101.23 339.64,101.06 345.05,100.9 350.74,100.76 356.76,100.63 363.15,100.51 369.99,100.4 377.36,100.31 385.4,100.23 394.3,100.16 404.35,100.1 416.05,100.06 430.41,100.03 450.17,100.01 512,100 573.83,100.01 593.59,100.03 607.95,100.06 619.65,100.1 629.7,100.16 638.6,100.23 646.64,100.31 654.01,100.4 660.85,100.51 667.24,100.63 673.26,100.76 678.95,100.9 684.36,101.06 689.52,101.23 694.46,101.41 699.21,101.61 703.77,101.82 708.17,102.04 712.42,102.27 716.53,102.52 720.52,102.77 724.39,103.04 728.15,103.33 731.81,103.63 735.37,103.93 738.85,104.26 742.23,104.59 745.54,104.94 748.78,105.3 751.94,105.67 755.03,106.06 758.06,106.46 761.02,106.87 763.93,107.3 766.77,107.74 769.57,108.19 772.31,108.65 775,109.13 777.64,109.62 780.24,110.12 782.79,110.64 785.29,111.17 787.76,111.72 790.18,112.27 792.56,112.84 794.91,113.43 797.22,114.02 799.49,114.64 801.73,115.26 803.93,115.9 806.1,116.55 808.23,117.21 810.34,117.89 812.41,118.59 814.45,119.29 816.47,120.01 818.45,120.75 820.41,121.5 822.34,122.26 824.24,123.04 826.11,123.83 827.96,124.63 829.78,125.45 831.58,126.29 833.35,127.13 835.1,128 836.83,128.88 838.53,129.77 840.21,130.68 841.86,131.6 843.5,132.54 845.11,133.49 846.7,134.46 848.27,135.44 849.81,136.44 851.34,137.45 852.85,138.48 854.33,139.52 855.8,140.58 857.24,141.66 858.67,142.75 860.08,143.86 861.46,144.99 862.83,146.13 864.18,147.29 865.52,148.46 866.83,149.66 868.13,150.86 869.41,152.09 870.67,153.33 871.91,154.59 873.14,155.87 874.34,157.17 875.54,158.48 876.71,159.82 877.87,161.17 879.01,162.54 880.14,163.92 881.25,165.33 882.34,166.76 883.42,168.2 884.48,169.67 885.52,171.15 886.55,172.66 887.56,174.19 888.56,175.73 889.54,177.3 890.51,178.89 891.46,180.5 892.4,182.14 893.32,183.79 894.23,185.47 895.12,187.17 896,188.9 896.87,190.65 897.71,192.42 898.55,194.22 899.37,196.04 900.17,197.89 900.96,199.76 901.74,201.66 902.5,203.59 903.25,205.55 903.99,207.53 904.71,209.55 905.41,211.59 906.11,213.66 906.79,215.77 907.45,217.9 908.1,220.07 908.74,222.27 909.36,224.51 909.98,226.78 910.57,229.09 911.16,231.44 911.73,233.82 912.28,236.24 912.83,238.71 913.36,241.21 913.88,243.76 914.38,246.36 914.87,249 915.35,251.69 915.81,254.43 916.26,257.23 916.7,260.07 917.13,262.98 917.54,265.94 917.94,268.97 918.33,272.06 918.7,275.22 919.06,278.46 919.41,281.77 919.74,285.15 920.07,288.63 920.37,292.19 920.67,295.85 920.96,299.61 921.23,303.48 921.48,307.47 921.73,311.58 921.96,315.83 922.18,320.23 922.39,324.79 922.59,329.54 922.77,334.48 922.94,339.64 923.1,345.05 923.24,350.74 923.37,356.76 923.49,363.15 923.6,369.99 923.69,377.36 923.77,385.4 923.84,394.3 923.9,404.35 923.94,416.05 923.97,430.41 923.99,450.17"/></clipPath>
    <filter id="bloom" x="-20%" y="-20%" width="140%" height="140%">
      <feGaussianBlur stdDeviation="26"/>
    </filter>
  </defs>
  <polygon points="924,512 923.99,573.83 923.97,593.59 923.94,607.95 923.9,619.65 923.84,629.7 923.77,638.6 923.69,646.64 923.6,654.01 923.49,660.85 923.37,667.24 923.24,673.26 923.1,678.95 922.94,684.36 922.77,689.52 922.59,694.46 922.39,699.21 922.18,703.77 921.96,708.17 921.73,712.42 921.48,716.53 921.23,720.52 920.96,724.39 920.67,728.15 920.37,731.81 920.07,735.37 919.74,738.85 919.41,742.23 919.06,745.54 918.7,748.78 918.33,751.94 917.94,755.03 917.54,758.06 917.13,761.02 916.7,763.93 916.26,766.77 915.81,769.57 915.35,772.31 914.87,775 914.38,777.64 913.88,780.24 913.36,782.79 912.83,785.29 912.28,787.76 911.73,790.18 911.16,792.56 910.57,794.91 909.98,797.22 909.36,799.49 908.74,801.73 908.1,803.93 907.45,806.1 906.79,808.23 906.11,810.34 905.41,812.41 904.71,814.45 903.99,816.47 903.25,818.45 902.5,820.41 901.74,822.34 900.96,824.24 900.17,826.11 899.37,827.96 898.55,829.78 897.71,831.58 896.87,833.35 896,835.1 895.12,836.83 894.23,838.53 893.32,840.21 892.4,841.86 891.46,843.5 890.51,845.11 889.54,846.7 888.56,848.27 887.56,849.81 886.55,851.34 885.52,852.85 884.48,854.33 883.42,855.8 882.34,857.24 881.25,858.67 880.14,860.08 879.01,861.46 877.87,862.83 876.71,864.18 875.54,865.52 874.34,866.83 873.14,868.13 871.91,869.41 870.67,870.67 869.41,871.91 868.13,873.14 866.83,874.34 865.52,875.54 864.18,876.71 862.83,877.87 861.46,879.01 860.08,880.14 858.67,881.25 857.24,882.34 855.8,883.42 854.33,884.48 852.85,885.52 851.34,886.55 849.81,887.56 848.27,888.56 846.7,889.54 845.11,890.51 843.5,891.46 841.86,892.4 840.21,893.32 838.53,894.23 836.83,895.12 835.1,896 833.35,896.87 831.58,897.71 829.78,898.55 827.96,899.37 826.11,900.17 824.24,900.96 822.34,901.74 820.41,902.5 818.45,903.25 816.47,903.99 814.45,904.71 812.41,905.41 810.34,906.11 808.23,906.79 806.1,907.45 803.93,908.1 801.73,908.74 799.49,909.36 797.22,909.98 794.91,910.57 792.56,911.16 790.18,911.73 787.76,912.28 785.29,912.83 782.79,913.36 780.24,913.88 777.64,914.38 775,914.87 772.31,915.35 769.57,915.81 766.77,916.26 763.93,916.7 761.02,917.13 758.06,917.54 755.03,917.94 751.94,918.33 748.78,918.7 745.54,919.06 742.23,919.41 738.85,919.74 735.37,920.07 731.81,920.37 728.15,920.67 724.39,920.96 720.52,921.23 716.53,921.48 712.42,921.73 708.17,921.96 703.77,922.18 699.21,922.39 694.46,922.59 689.52,922.77 684.36,922.94 678.95,923.1 673.26,923.24 667.24,923.37 660.85,923.49 654.01,923.6 646.64,923.69 638.6,923.77 629.7,923.84 619.65,923.9 607.95,923.94 593.59,923.97 573.83,923.99 512,924 450.17,923.99 430.41,923.97 416.05,923.94 404.35,923.9 394.3,923.84 385.4,923.77 377.36,923.69 369.99,923.6 363.15,923.49 356.76,923.37 350.74,923.24 345.05,923.1 339.64,922.94 334.48,922.77 329.54,922.59 324.79,922.39 320.23,922.18 315.83,921.96 311.58,921.73 307.47,921.48 303.48,921.23 299.61,920.96 295.85,920.67 292.19,920.37 288.63,920.07 285.15,919.74 281.77,919.41 278.46,919.06 275.22,918.7 272.06,918.33 268.97,917.94 265.94,917.54 262.98,917.13 260.07,916.7 257.23,916.26 254.43,915.81 251.69,915.35 249,914.87 246.36,914.38 243.76,913.88 241.21,913.36 238.71,912.83 236.24,912.28 233.82,911.73 231.44,911.16 229.09,910.57 226.78,909.98 224.51,909.36 222.27,908.74 220.07,908.1 217.9,907.45 215.77,906.79 213.66,906.11 211.59,905.41 209.55,904.71 207.53,903.99 205.55,903.25 203.59,902.5 201.66,901.74 199.76,900.96 197.89,900.17 196.04,899.37 194.22,898.55 192.42,897.71 190.65,896.87 188.9,896 187.17,895.12 185.47,894.23 183.79,893.32 182.14,892.4 180.5,891.46 178.89,890.51 177.3,889.54 175.73,888.56 174.19,887.56 172.66,886.55 171.15,885.52 169.67,884.48 168.2,883.42 166.76,882.34 165.33,881.25 163.92,880.14 162.54,879.01 161.17,877.87 159.82,876.71 158.48,875.54 157.17,874.34 155.87,873.14 154.59,871.91 153.33,870.67 152.09,869.41 150.86,868.13 149.66,866.83 148.46,865.52 147.29,864.18 146.13,862.83 144.99,861.46 143.86,860.08 142.75,858.67 141.66,857.24 140.58,855.8 139.52,854.33 138.48,852.85 137.45,851.34 136.44,849.81 135.44,848.27 134.46,846.7 133.49,845.11 132.54,843.5 131.6,841.86 130.68,840.21 129.77,838.53 128.88,836.83 128,835.1 127.13,833.35 126.29,831.58 125.45,829.78 124.63,827.96 123.83,826.11 123.04,824.24 122.26,822.34 121.5,820.41 120.75,818.45 120.01,816.47 119.29,814.45 118.59,812.41 117.89,810.34 117.21,808.23 116.55,806.1 115.9,803.93 115.26,801.73 114.64,799.49 114.02,797.22 113.43,794.91 112.84,792.56 112.27,790.18 111.72,787.76 111.17,785.29 110.64,782.79 110.12,780.24 109.62,777.64 109.13,775 108.65,772.31 108.19,769.57 107.74,766.77 107.3,763.93 106.87,761.02 106.46,758.06 106.06,755.03 105.67,751.94 105.3,748.78 104.94,745.54 104.59,742.23 104.26,738.85 103.93,735.37 103.63,731.81 103.33,728.15 103.04,724.39 102.77,720.52 102.52,716.53 102.27,712.42 102.04,708.17 101.82,703.77 101.61,699.21 101.41,694.46 101.23,689.52 101.06,684.36 100.9,678.95 100.76,673.26 100.63,667.24 100.51,660.85 100.4,654.01 100.31,646.64 100.23,638.6 100.16,629.7 100.1,619.65 100.06,607.95 100.03,593.59 100.01,573.83 100,512 100.01,450.17 100.03,430.41 100.06,416.05 100.1,404.35 100.16,394.3 100.23,385.4 100.31,377.36 100.4,369.99 100.51,363.15 100.63,356.76 100.76,350.74 100.9,345.05 101.06,339.64 101.23,334.48 101.41,329.54 101.61,324.79 101.82,320.23 102.04,315.83 102.27,311.58 102.52,307.47 102.77,303.48 103.04,299.61 103.33,295.85 103.63,292.19 103.93,288.63 104.26,285.15 104.59,281.77 104.94,278.46 105.3,275.22 105.67,272.06 106.06,268.97 106.46,265.94 106.87,262.98 107.3,260.07 107.74,257.23 108.19,254.43 108.65,251.69 109.13,249 109.62,246.36 110.12,243.76 110.64,241.21 111.17,238.71 111.72,236.24 112.27,233.82 112.84,231.44 113.43,229.09 114.02,226.78 114.64,224.51 115.26,222.27 115.9,220.07 116.55,217.9 117.21,215.77 117.89,213.66 118.59,211.59 119.29,209.55 120.01,207.53 120.75,205.55 121.5,203.59 122.26,201.66 123.04,199.76 123.83,197.89 124.63,196.04 125.45,194.22 126.29,192.42 127.13,190.65 128,188.9 128.88,187.17 129.77,185.47 130.68,183.79 131.6,182.14 132.54,180.5 133.49,178.89 134.46,177.3 135.44,175.73 136.44,174.19 137.45,172.66 138.48,171.15 139.52,169.67 140.58,168.2 141.66,166.76 142.75,165.33 143.86,163.92 144.99,162.54 146.13,161.17 147.29,159.82 148.46,158.48 149.66,157.17 150.86,155.87 152.09,154.59 153.33,153.33 154.59,152.09 155.87,150.86 157.17,149.66 158.48,148.46 159.82,147.29 161.17,146.13 162.54,144.99 163.92,143.86 165.33,142.75 166.76,141.66 168.2,140.58 169.67,139.52 171.15,138.48 172.66,137.45 174.19,136.44 175.73,135.44 177.3,134.46 178.89,133.49 180.5,132.54 182.14,131.6 183.79,130.68 185.47,129.77 187.17,128.88 188.9,128 190.65,127.13 192.42,126.29 194.22,125.45 196.04,124.63 197.89,123.83 199.76,123.04 201.66,122.26 203.59,121.5 205.55,120.75 207.53,120.01 209.55,119.29 211.59,118.59 213.66,117.89 215.77,117.21 217.9,116.55 220.07,115.9 222.27,115.26 224.51,114.64 226.78,114.02 229.09,113.43 231.44,112.84 233.82,112.27 236.24,111.72 238.71,111.17 241.21,110.64 243.76,110.12 246.36,109.62 249,109.13 251.69,108.65 254.43,108.19 257.23,107.74 260.07,107.3 262.98,106.87 265.94,106.46 268.97,106.06 272.06,105.67 275.22,105.3 278.46,104.94 281.77,104.59 285.15,104.26 288.63,103.93 292.19,103.63 295.85,103.33 299.61,103.04 303.48,102.77 307.47,102.52 311.58,102.27 315.83,102.04 320.23,101.82 324.79,101.61 329.54,101.41 334.48,101.23 339.64,101.06 345.05,100.9 350.74,100.76 356.76,100.63 363.15,100.51 369.99,100.4 377.36,100.31 385.4,100.23 394.3,100.16 404.35,100.1 416.05,100.06 430.41,100.03 450.17,100.01 512,100 573.83,100.01 593.59,100.03 607.95,100.06 619.65,100.1 629.7,100.16 638.6,100.23 646.64,100.31 654.01,100.4 660.85,100.51 667.24,100.63 673.26,100.76 678.95,100.9 684.36,101.06 689.52,101.23 694.46,101.41 699.21,101.61 703.77,101.82 708.17,102.04 712.42,102.27 716.53,102.52 720.52,102.77 724.39,103.04 728.15,103.33 731.81,103.63 735.37,103.93 738.85,104.26 742.23,104.59 745.54,104.94 748.78,105.3 751.94,105.67 755.03,106.06 758.06,106.46 761.02,106.87 763.93,107.3 766.77,107.74 769.57,108.19 772.31,108.65 775,109.13 777.64,109.62 780.24,110.12 782.79,110.64 785.29,111.17 787.76,111.72 790.18,112.27 792.56,112.84 794.91,113.43 797.22,114.02 799.49,114.64 801.73,115.26 803.93,115.9 806.1,116.55 808.23,117.21 810.34,117.89 812.41,118.59 814.45,119.29 816.47,120.01 818.45,120.75 820.41,121.5 822.34,122.26 824.24,123.04 826.11,123.83 827.96,124.63 829.78,125.45 831.58,126.29 833.35,127.13 835.1,128 836.83,128.88 838.53,129.77 840.21,130.68 841.86,131.6 843.5,132.54 845.11,133.49 846.7,134.46 848.27,135.44 849.81,136.44 851.34,137.45 852.85,138.48 854.33,139.52 855.8,140.58 857.24,141.66 858.67,142.75 860.08,143.86 861.46,144.99 862.83,146.13 864.18,147.29 865.52,148.46 866.83,149.66 868.13,150.86 869.41,152.09 870.67,153.33 871.91,154.59 873.14,155.87 874.34,157.17 875.54,158.48 876.71,159.82 877.87,161.17 879.01,162.54 880.14,163.92 881.25,165.33 882.34,166.76 883.42,168.2 884.48,169.67 885.52,171.15 886.55,172.66 887.56,174.19 888.56,175.73 889.54,177.3 890.51,178.89 891.46,180.5 892.4,182.14 893.32,183.79 894.23,185.47 895.12,187.17 896,188.9 896.87,190.65 897.71,192.42 898.55,194.22 899.37,196.04 900.17,197.89 900.96,199.76 901.74,201.66 902.5,203.59 903.25,205.55 903.99,207.53 904.71,209.55 905.41,211.59 906.11,213.66 906.79,215.77 907.45,217.9 908.1,220.07 908.74,222.27 909.36,224.51 909.98,226.78 910.57,229.09 911.16,231.44 911.73,233.82 912.28,236.24 912.83,238.71 913.36,241.21 913.88,243.76 914.38,246.36 914.87,249 915.35,251.69 915.81,254.43 916.26,257.23 916.7,260.07 917.13,262.98 917.54,265.94 917.94,268.97 918.33,272.06 918.7,275.22 919.06,278.46 919.41,281.77 919.74,285.15 920.07,288.63 920.37,292.19 920.67,295.85 920.96,299.61 921.23,303.48 921.48,307.47 921.73,311.58 921.96,315.83 922.18,320.23 922.39,324.79 922.59,329.54 922.77,334.48 922.94,339.64 923.1,345.05 923.24,350.74 923.37,356.76 923.49,363.15 923.6,369.99 923.69,377.36 923.77,385.4 923.84,394.3 923.9,404.35 923.94,416.05 923.97,430.41 923.99,450.17" fill="#0a0707" stroke="#332f2e" stroke-width="4"/>
  <g clip-path="url(#squircle)">
    <g filter="url(#bloom)" opacity="0.82" style="mix-blend-mode:screen">
    <g>
      <rect x="278.56" y="214.56" width="66.88" height="66.88" rx="10.7" fill="#22d3ee" fill-opacity="0.7"/>
      <rect x="366.56" y="214.56" width="66.88" height="66.88" rx="10.7" fill="#22d3ee" fill-opacity="0.7"/>
      <rect x="454.56" y="214.56" width="66.88" height="66.88" rx="10.7" fill="#22d3ee" fill-opacity="0.7"/>
      <rect x="542.56" y="214.56" width="66.88" height="66.88" rx="10.7" fill="#22d3ee" fill-opacity="0.7"/>
      <rect x="630.56" y="214.56" width="66.88" height="66.88" rx="10.7" fill="#22d3ee" fill-opacity="0.7"/>
      <rect x="278.56" y="302.56" width="66.88" height="66.88" rx="10.7" fill="#22d3ee" fill-opacity="0.7"/>
      <rect x="278.56" y="390.56" width="66.88" height="66.88" rx="10.7" fill="#22d3ee" fill-opacity="0.7"/>
      <rect x="278.56" y="478.56" width="66.88" height="66.88" rx="10.7" fill="#22d3ee" fill-opacity="0.7"/>
      <rect x="366.56" y="478.56" width="66.88" height="66.88" rx="10.7" fill="#22d3ee" fill-opacity="0.7"/>
      <rect x="454.56" y="478.56" width="66.88" height="66.88" rx="10.7" fill="#22d3ee" fill-opacity="0.7"/>
      <rect x="542.56" y="478.56" width="66.88" height="66.88" rx="10.7" fill="#22d3ee" fill-opacity="0.7"/>
      <rect x="278.56" y="566.56" width="66.88" height="66.88" rx="10.7" fill="#22d3ee" fill-opacity="0.7"/>
      <rect x="278.56" y="654.56" width="66.88" height="66.88" rx="10.7" fill="#22d3ee" fill-opacity="0.7"/>
      <rect x="278.56" y="742.56" width="66.88" height="66.88" rx="10.7" fill="#22d3ee" fill-opacity="0.7"/>
      <rect x="366.56" y="742.56" width="66.88" height="66.88" rx="10.7" fill="#22d3ee" fill-opacity="0.7"/>
      <rect x="454.56" y="742.56" width="66.88" height="66.88" rx="10.7" fill="#22d3ee" fill-opacity="0.7"/>
      <rect x="542.56" y="742.56" width="66.88" height="66.88" rx="10.7" fill="#22d3ee" fill-opacity="0.7"/>
      <rect x="630.56" y="742.56" width="66.88" height="66.88" rx="10.7" fill="#22d3ee" fill-opacity="0.7"/>
    </g>
    <g>
      <rect x="326.56" y="214.56" width="66.88" height="66.88" rx="10.7" fill="#ff2e63" fill-opacity="0.7"/>
      <rect x="414.56" y="214.56" width="66.88" height="66.88" rx="10.7" fill="#ff2e63" fill-opacity="0.7"/>
      <rect x="502.56" y="214.56" width="66.88" height="66.88" rx="10.7" fill="#ff2e63" fill-opacity="0.7"/>
      <rect x="590.56" y="214.56" width="66.88" height="66.88" rx="10.7" fill="#ff2e63" fill-opacity="0.7"/>
      <rect x="678.56" y="214.56" width="66.88" height="66.88" rx="10.7" fill="#ff2e63" fill-opacity="0.7"/>
      <rect x="326.56" y="302.56" width="66.88" height="66.88" rx="10.7" fill="#ff2e63" fill-opacity="0.7"/>
      <rect x="326.56" y="390.56" width="66.88" height="66.88" rx="10.7" fill="#ff2e63" fill-opacity="0.7"/>
      <rect x="326.56" y="478.56" width="66.88" height="66.88" rx="10.7" fill="#ff2e63" fill-opacity="0.7"/>
      <rect x="414.56" y="478.56" width="66.88" height="66.88" rx="10.7" fill="#ff2e63" fill-opacity="0.7"/>
      <rect x="502.56" y="478.56" width="66.88" height="66.88" rx="10.7" fill="#ff2e63" fill-opacity="0.7"/>
      <rect x="590.56" y="478.56" width="66.88" height="66.88" rx="10.7" fill="#ff2e63" fill-opacity="0.7"/>
      <rect x="326.56" y="566.56" width="66.88" height="66.88" rx="10.7" fill="#ff2e63" fill-opacity="0.7"/>
      <rect x="326.56" y="654.56" width="66.88" height="66.88" rx="10.7" fill="#ff2e63" fill-opacity="0.7"/>
      <rect x="326.56" y="742.56" width="66.88" height="66.88" rx="10.7" fill="#ff2e63" fill-opacity="0.7"/>
      <rect x="414.56" y="742.56" width="66.88" height="66.88" rx="10.7" fill="#ff2e63" fill-opacity="0.7"/>
      <rect x="502.56" y="742.56" width="66.88" height="66.88" rx="10.7" fill="#ff2e63" fill-opacity="0.7"/>
      <rect x="590.56" y="742.56" width="66.88" height="66.88" rx="10.7" fill="#ff2e63" fill-opacity="0.7"/>
      <rect x="678.56" y="742.56" width="66.88" height="66.88" rx="10.7" fill="#ff2e63" fill-opacity="0.7"/>
    </g>
    <g>
      <rect x="302.56" y="214.56" width="66.88" height="66.88" rx="10.7" fill="#e4e1dd"/>
      <rect x="390.56" y="214.56" width="66.88" height="66.88" rx="10.7" fill="#e4e1dd"/>
      <rect x="478.56" y="214.56" width="66.88" height="66.88" rx="10.7" fill="#e4e1dd"/>
      <rect x="566.56" y="214.56" width="66.88" height="66.88" rx="10.7" fill="#e4e1dd"/>
      <rect x="654.56" y="214.56" width="66.88" height="66.88" rx="10.7" fill="#e4e1dd"/>
      <rect x="302.56" y="302.56" width="66.88" height="66.88" rx="10.7" fill="#e4e1dd"/>
      <rect x="302.56" y="390.56" width="66.88" height="66.88" rx="10.7" fill="#e4e1dd"/>
      <rect x="302.56" y="478.56" width="66.88" height="66.88" rx="10.7" fill="#e4e1dd"/>
      <rect x="390.56" y="478.56" width="66.88" height="66.88" rx="10.7" fill="#e4e1dd"/>
      <rect x="478.56" y="478.56" width="66.88" height="66.88" rx="10.7" fill="#e4e1dd"/>
      <rect x="566.56" y="478.56" width="66.88" height="66.88" rx="10.7" fill="#e4e1dd"/>
      <rect x="302.56" y="566.56" width="66.88" height="66.88" rx="10.7" fill="#e4e1dd"/>
      <rect x="302.56" y="654.56" width="66.88" height="66.88" rx="10.7" fill="#e4e1dd"/>
      <rect x="302.56" y="742.56" width="66.88" height="66.88" rx="10.7" fill="#e4e1dd"/>
      <rect x="390.56" y="742.56" width="66.88" height="66.88" rx="10.7" fill="#e4e1dd"/>
      <rect x="478.56" y="742.56" width="66.88" height="66.88" rx="10.7" fill="#e4e1dd"/>
      <rect x="566.56" y="742.56" width="66.88" height="66.88" rx="10.7" fill="#e4e1dd"/>
      <rect x="654.56" y="742.56" width="66.88" height="66.88" rx="10.7" fill="#e4e1dd"/>
    </g>
    </g>
    <g>
      <rect x="278.56" y="214.56" width="66.88" height="66.88" rx="10.7" fill="#22d3ee" fill-opacity="0.7"/>
      <rect x="366.56" y="214.56" width="66.88" height="66.88" rx="10.7" fill="#22d3ee" fill-opacity="0.7"/>
      <rect x="454.56" y="214.56" width="66.88" height="66.88" rx="10.7" fill="#22d3ee" fill-opacity="0.7"/>
      <rect x="542.56" y="214.56" width="66.88" height="66.88" rx="10.7" fill="#22d3ee" fill-opacity="0.7"/>
      <rect x="630.56" y="214.56" width="66.88" height="66.88" rx="10.7" fill="#22d3ee" fill-opacity="0.7"/>
      <rect x="278.56" y="302.56" width="66.88" height="66.88" rx="10.7" fill="#22d3ee" fill-opacity="0.7"/>
      <rect x="278.56" y="390.56" width="66.88" height="66.88" rx="10.7" fill="#22d3ee" fill-opacity="0.7"/>
      <rect x="278.56" y="478.56" width="66.88" height="66.88" rx="10.7" fill="#22d3ee" fill-opacity="0.7"/>
      <rect x="366.56" y="478.56" width="66.88" height="66.88" rx="10.7" fill="#22d3ee" fill-opacity="0.7"/>
      <rect x="454.56" y="478.56" width="66.88" height="66.88" rx="10.7" fill="#22d3ee" fill-opacity="0.7"/>
      <rect x="542.56" y="478.56" width="66.88" height="66.88" rx="10.7" fill="#22d3ee" fill-opacity="0.7"/>
      <rect x="278.56" y="566.56" width="66.88" height="66.88" rx="10.7" fill="#22d3ee" fill-opacity="0.7"/>
      <rect x="278.56" y="654.56" width="66.88" height="66.88" rx="10.7" fill="#22d3ee" fill-opacity="0.7"/>
      <rect x="278.56" y="742.56" width="66.88" height="66.88" rx="10.7" fill="#22d3ee" fill-opacity="0.7"/>
      <rect x="366.56" y="742.56" width="66.88" height="66.88" rx="10.7" fill="#22d3ee" fill-opacity="0.7"/>
      <rect x="454.56" y="742.56" width="66.88" height="66.88" rx="10.7" fill="#22d3ee" fill-opacity="0.7"/>
      <rect x="542.56" y="742.56" width="66.88" height="66.88" rx="10.7" fill="#22d3ee" fill-opacity="0.7"/>
      <rect x="630.56" y="742.56" width="66.88" height="66.88" rx="10.7" fill="#22d3ee" fill-opacity="0.7"/>
    </g>
    <g>
      <rect x="326.56" y="214.56" width="66.88" height="66.88" rx="10.7" fill="#ff2e63" fill-opacity="0.7"/>
      <rect x="414.56" y="214.56" width="66.88" height="66.88" rx="10.7" fill="#ff2e63" fill-opacity="0.7"/>
      <rect x="502.56" y="214.56" width="66.88" height="66.88" rx="10.7" fill="#ff2e63" fill-opacity="0.7"/>
      <rect x="590.56" y="214.56" width="66.88" height="66.88" rx="10.7" fill="#ff2e63" fill-opacity="0.7"/>
      <rect x="678.56" y="214.56" width="66.88" height="66.88" rx="10.7" fill="#ff2e63" fill-opacity="0.7"/>
      <rect x="326.56" y="302.56" width="66.88" height="66.88" rx="10.7" fill="#ff2e63" fill-opacity="0.7"/>
      <rect x="326.56" y="390.56" width="66.88" height="66.88" rx="10.7" fill="#ff2e63" fill-opacity="0.7"/>
      <rect x="326.56" y="478.56" width="66.88" height="66.88" rx="10.7" fill="#ff2e63" fill-opacity="0.7"/>
      <rect x="414.56" y="478.56" width="66.88" height="66.88" rx="10.7" fill="#ff2e63" fill-opacity="0.7"/>
      <rect x="502.56" y="478.56" width="66.88" height="66.88" rx="10.7" fill="#ff2e63" fill-opacity="0.7"/>
      <rect x="590.56" y="478.56" width="66.88" height="66.88" rx="10.7" fill="#ff2e63" fill-opacity="0.7"/>
      <rect x="326.56" y="566.56" width="66.88" height="66.88" rx="10.7" fill="#ff2e63" fill-opacity="0.7"/>
      <rect x="326.56" y="654.56" width="66.88" height="66.88" rx="10.7" fill="#ff2e63" fill-opacity="0.7"/>
      <rect x="326.56" y="742.56" width="66.88" height="66.88" rx="10.7" fill="#ff2e63" fill-opacity="0.7"/>
      <rect x="414.56" y="742.56" width="66.88" height="66.88" rx="10.7" fill="#ff2e63" fill-opacity="0.7"/>
      <rect x="502.56" y="742.56" width="66.88" height="66.88" rx="10.7" fill="#ff2e63" fill-opacity="0.7"/>
      <rect x="590.56" y="742.56" width="66.88" height="66.88" rx="10.7" fill="#ff2e63" fill-opacity="0.7"/>
      <rect x="678.56" y="742.56" width="66.88" height="66.88" rx="10.7" fill="#ff2e63" fill-opacity="0.7"/>
    </g>
    <g>
      <rect x="302.56" y="214.56" width="66.88" height="66.88" rx="10.7" fill="#e4e1dd"/>
      <rect x="390.56" y="214.56" width="66.88" height="66.88" rx="10.7" fill="#e4e1dd"/>
      <rect x="478.56" y="214.56" width="66.88" height="66.88" rx="10.7" fill="#e4e1dd"/>
      <rect x="566.56" y="214.56" width="66.88" height="66.88" rx="10.7" fill="#e4e1dd"/>
      <rect x="654.56" y="214.56" width="66.88" height="66.88" rx="10.7" fill="#e4e1dd"/>
      <rect x="302.56" y="302.56" width="66.88" height="66.88" rx="10.7" fill="#e4e1dd"/>
      <rect x="302.56" y="390.56" width="66.88" height="66.88" rx="10.7" fill="#e4e1dd"/>
      <rect x="302.56" y="478.56" width="66.88" height="66.88" rx="10.7" fill="#e4e1dd"/>
      <rect x="390.56" y="478.56" width="66.88" height="66.88" rx="10.7" fill="#e4e1dd"/>
      <rect x="478.56" y="478.56" width="66.88" height="66.88" rx="10.7" fill="#e4e1dd"/>
      <rect x="566.56" y="478.56" width="66.88" height="66.88" rx="10.7" fill="#e4e1dd"/>
      <rect x="302.56" y="566.56" width="66.88" height="66.88" rx="10.7" fill="#e4e1dd"/>
      <rect x="302.56" y="654.56" width="66.88" height="66.88" rx="10.7" fill="#e4e1dd"/>
      <rect x="302.56" y="742.56" width="66.88" height="66.88" rx="10.7" fill="#e4e1dd"/>
      <rect x="390.56" y="742.56" width="66.88" height="66.88" rx="10.7" fill="#e4e1dd"/>
      <rect x="478.56" y="742.56" width="66.88" height="66.88" rx="10.7" fill="#e4e1dd"/>
      <rect x="566.56" y="742.56" width="66.88" height="66.88" rx="10.7" fill="#e4e1dd"/>
      <rect x="654.56" y="742.56" width="66.88" height="66.88" rx="10.7" fill="#e4e1dd"/>
    </g>
  </g>
</svg>
